<svg id="Layer_1" data-name="Layer 1" xmlns="http://www.w3.org/2000/svg" viewBox="0 0 635.4 155.57"><title>logo</title><path d="M51.43,10,11.33,50.1v56.71l40.1,40.1h56.71l40.1-40.1V50.1L108.14,10Z" style="fill:#2c3e50;opacity:0.30000000000000004"/><path d="M130.75,107.24l-.55-.23h0a11.88,11.88,0,0,1-4.18-2.89l0,0h0l-.11-.16,0,0h0l0,0h0c-.29-.43-.57-.62-.81-.53H125c-.29.15-.23,0-.35-.33-.29-.78-.76-2.26-.84-2.48-.11-.41-.41.64-.34-.49l.12-2,.46-.5c.69-.79.74-2.89,1.09-3.4a5.5,5.5,0,0,0,1.74-3c.7-2.38,1.55-5.79.65-5.84a1.1,1.1,0,0,0-.73.36,40.46,40.46,0,0,0,.56-4.33c.1-1.93-.22-6.87-1.32-8.69a11.16,11.16,0,0,0-3.45-3.13,17.56,17.56,0,0,0-2.32-1.26c-2-.89-8.34-.48-10.49,0a8.14,8.14,0,0,0-5.25,3.89c-1.09,1.81-1.58,7.25-1.48,9.18,0,.87.56,2.33.69,3.22.08.46.15.47.2.8a.59.59,0,0,0-.26,0c-.89.05,0,3.45.65,5.84a5.55,5.55,0,0,0,1.74,3c.35.51.4,2.61,1.1,3.4l.49.53.13,1.67.24.93c-.11-.27-.32-.44-.42-.09l-.9,2.73a.17.17,0,0,0-.14-.08c-.29-.26-.68,0-1,.56a10.88,10.88,0,0,1-4.29,3.05l-.06.21v0l-.48.2L90,111.5l-.75.28L102,124.49h28.08l12.55-12.55c-.38-.13-.78-.27-1.2-.43Z" style="fill:#2c3e50;opacity:0.79"/><path d="M54.51,107.24,54,107h0a11.89,11.89,0,0,1-4.18-2.89l0,0h0l-.1-.16,0,0h0l0,0h0c-.28-.43-.57-.62-.81-.53h-.06c-.29.15-.23,0-.35-.33-.29-.78-.76-2.26-.84-2.48-.11-.41-.41.64-.34-.49l.12-2,.46-.5c.69-.79.74-2.89,1.09-3.4a5.51,5.51,0,0,0,1.74-3c.7-2.38,1.55-5.79.65-5.84a1.11,1.11,0,0,0-.73.36,40.42,40.42,0,0,0,.57-4.33c.1-1.93-.22-6.87-1.32-8.69a11.16,11.16,0,0,0-3.45-3.13A17.6,17.6,0,0,0,44,68.18c-2-.89-8.34-.48-10.49,0a8.13,8.13,0,0,0-5.25,3.89c-1.09,1.81-1.58,7.25-1.48,9.18,0,.87.56,2.33.69,3.22.08.46.15.47.2.8a.6.6,0,0,0-.26,0c-.89.05,0,3.46.64,5.84a5.55,5.55,0,0,0,1.74,3c.35.51.4,2.61,1.1,3.4l.48.53.13,1.67.24.93c-.11-.27-.32-.44-.42-.09l-.9,2.73a.18.18,0,0,0-.14-.08c-.29-.26-.68,0-1,.56A10.88,10.88,0,0,1,25,106.77l-.06.21v0l-.48.2L13.78,111.5l-.75.28,12.7,12.71H53.82l12.55-12.55c-.38-.13-.78-.27-1.2-.43Z" style="fill:#2c3e50;opacity:0.79"/><path d="M45.57,0,0,45.57V110l45.57,45.56H110L155.57,110V45.57L110,0Zm56.15,20,33.85,33.85v47.87l-33.85,33.85H53.85L20,101.72V53.85L53.85,20Z" style="fill:#2c3e50"/><path d="M104.11,114.91l-1-.42h0c-3.37-1.52-6.34-3.64-7.43-5.13l0,0v0c-.06-.09-.13-.19-.19-.29l0-.07v0l0,0h0c-.5-.76-1-1.1-1.44-.95h-.09l0,0c-.51.27-.41,0-.62-.59-.51-1.39-1.36-4-1.49-4.41-.2-.72-.73,1.14-.6-.87l.22-3.64.82-.89c1.23-1.41,1.32-5.14,1.94-6s1.86-1.11,3.1-5.34,2.75-10.28,1.16-10.38a2,2,0,0,0-1.3.63,71.85,71.85,0,0,0,1-7.69c.17-3.43-.39-12.22-2.34-15.44a19.83,19.83,0,0,0-6.13-5.57,31.34,31.34,0,0,0-4.13-2.23c-3.57-1.59-14.83-.86-18.64,0a14.46,14.46,0,0,0-9.33,6.92c-1.94,3.22-2.8,12.89-2.63,16.32.08,1.54,1,4.14,1.23,5.72.14.83.26.83.36,1.42a1.05,1.05,0,0,0-.46-.08c-1.59.09-.09,6.14,1.15,10.38s2.47,4.43,3.1,5.34.71,4.64,2,6c.19.22.49.55.86.94l.23,3,.42,1.65c-.19-.47-.57-.78-.75-.16l-1.6,4.86a.31.31,0,0,0-.25-.14c-.51-.46-1.21-.06-1.84,1-.94,1.56-4,3.8-7.63,5.43l-.1.38,0,.08-.86.36-18.94,7.58c-.45.18-.9.34-1.33.49L53,145.57h49.91l22.31-22.31c-.68-.23-1.39-.48-2.13-.77Z" style="fill:#2c3e50"/><path d="M188.57,45V56.7h.24a21.14,21.14,0,0,1,3.28-5.4A21.49,21.49,0,0,1,196.83,47a23.21,23.21,0,0,1,5.71-2.73,20.61,20.61,0,0,1,6.31-1,13.48,13.48,0,0,1,3.76.61V60q-1.22-.24-2.91-.43a30.91,30.91,0,0,0-3.28-.18,18.38,18.38,0,0,0-8,1.58,13.88,13.88,0,0,0-5.28,4.31,17.26,17.26,0,0,0-2.85,6.37,34.67,34.67,0,0,0-.85,7.89v28.29H172.18V45Z" style="fill:#2c3e50"/><path d="M235.68,92.76q3.88,3.76,11.17,3.76a15.37,15.37,0,0,0,9-2.61q3.76-2.61,4.61-5.52h15.18Q272,99.68,264.46,104.54t-18.21,4.86A35.84,35.84,0,0,1,232.89,107a27.76,27.76,0,0,1-10.08-6.74,30.29,30.29,0,0,1-6.38-10.44,38.2,38.2,0,0,1-2.25-13.36,36.61,36.61,0,0,1,2.31-13.11,30.35,30.35,0,0,1,16.7-17.48,32.5,32.5,0,0,1,13.05-2.55,29.85,29.85,0,0,1,14,3.1A27.89,27.89,0,0,1,270,54.75a34.22,34.22,0,0,1,5.53,11.9,44.37,44.37,0,0,1,1.21,14H231.43Q231.8,89,235.68,92.76Zm19.49-33q-3.1-3.4-9.41-3.4a15,15,0,0,0-6.86,1.4,13.08,13.08,0,0,0-4.37,3.46,12.67,12.67,0,0,0-2.31,4.37,19.64,19.64,0,0,0-.79,4.13h28Q258.27,63.13,255.17,59.73Z" style="fill:#2c3e50"/><path d="M303.31,45v8h.24a19,19,0,0,1,8-7.41,24.6,24.6,0,0,1,10.69-2.31A27.2,27.2,0,0,1,335,46.13a26.34,26.34,0,0,1,8.86,7.41,31.33,31.33,0,0,1,5.22,10.75,47.82,47.82,0,0,1,1.7,12.81,43.21,43.21,0,0,1-1.7,12.14,31,31,0,0,1-5.16,10.32,25.53,25.53,0,0,1-8.62,7.16,26,26,0,0,1-12.08,2.67A24.44,24.44,0,0,1,312.48,107a20.32,20.32,0,0,1-8.07-7h-.24v29.75H286.92V45Zm22.4,49.78a13.84,13.84,0,0,0,4.61-4.43A18.28,18.28,0,0,0,332.82,84a37.68,37.68,0,0,0,.73-7.41,34.92,34.92,0,0,0-.79-7.41,19.75,19.75,0,0,0-2.61-6.5,14.58,14.58,0,0,0-4.67-4.61,13.07,13.07,0,0,0-7-1.76,13.31,13.31,0,0,0-7.1,1.76,14.17,14.17,0,0,0-4.61,4.55,18.89,18.89,0,0,0-2.49,6.44,38.27,38.27,0,0,0-.73,7.53,34.8,34.8,0,0,0,.79,7.41,19.12,19.12,0,0,0,2.55,6.37,14.71,14.71,0,0,0,18.82,4.43Z" style="fill:#2c3e50"/><path d="M361.47,62.83a28.71,28.71,0,0,1,16.76-17.12,35.84,35.84,0,0,1,13.36-2.37A36.33,36.33,0,0,1,405,45.71a28.59,28.59,0,0,1,16.82,17.12,38.56,38.56,0,0,1,2.31,13.66,38.05,38.05,0,0,1-2.31,13.6,29.5,29.5,0,0,1-6.56,10.38A28.56,28.56,0,0,1,405,107.09a37.21,37.21,0,0,1-13.42,2.31,36.71,36.71,0,0,1-13.36-2.31,28.65,28.65,0,0,1-10.2-6.62,29.44,29.44,0,0,1-6.56-10.38,38,38,0,0,1-2.31-13.6A38.54,38.54,0,0,1,361.47,62.83Zm15.66,21a19.53,19.53,0,0,0,2.49,6.44,13.24,13.24,0,0,0,4.67,4.55,14.25,14.25,0,0,0,7.29,1.7,14.6,14.6,0,0,0,7.35-1.7,13.12,13.12,0,0,0,4.74-4.55,19.6,19.6,0,0,0,2.49-6.44,36.76,36.76,0,0,0,.73-7.35,37.69,37.69,0,0,0-.73-7.41,19,19,0,0,0-2.49-6.44,13.85,13.85,0,0,0-4.74-4.55,14.22,14.22,0,0,0-7.35-1.76,13.26,13.26,0,0,0-12,6.31,18.88,18.88,0,0,0-2.49,6.44,37.69,37.69,0,0,0-.73,7.41A36.76,36.76,0,0,0,377.14,83.83Z" style="fill:#2c3e50"/><path d="M451.69,45V56.7h.24a21.14,21.14,0,0,1,3.28-5.4A21.5,21.5,0,0,1,459.95,47a23.19,23.19,0,0,1,5.71-2.73,20.61,20.61,0,0,1,6.31-1,13.48,13.48,0,0,1,3.76.61V60q-1.22-.24-2.91-.43a30.91,30.91,0,0,0-3.28-.18,18.39,18.39,0,0,0-8,1.58,13.88,13.88,0,0,0-5.28,4.31,17.26,17.26,0,0,0-2.85,6.37,34.64,34.64,0,0,0-.85,7.89v28.29H435.3V45Z" style="fill:#2c3e50"/><path d="M517,45V56.57H504.39V87.66q0,4.37,1.46,5.83t5.83,1.46q1.46,0,2.79-.12a23.59,23.59,0,0,0,2.55-.36v13.36a41.21,41.21,0,0,1-4.86.49q-2.67.12-5.22.12a50.36,50.36,0,0,1-7.59-.55,17.89,17.89,0,0,1-6.31-2.13,11.24,11.24,0,0,1-4.31-4.49,16,16,0,0,1-1.58-7.65v-37H476.7V45h10.44V26.22h17.24V45Z" style="fill:#2c3e50"/><path d="M543.73,92.76q3.89,3.76,11.17,3.76a15.37,15.37,0,0,0,9-2.61q3.76-2.61,4.61-5.52h15.18Q580,99.68,572.5,104.54t-18.21,4.86A35.84,35.84,0,0,1,540.94,107a27.76,27.76,0,0,1-10.08-6.74,30.31,30.31,0,0,1-6.37-10.44,38.2,38.2,0,0,1-2.25-13.36,36.6,36.6,0,0,1,2.31-13.11,30.35,30.35,0,0,1,16.7-17.48,32.5,32.5,0,0,1,13.05-2.55,29.85,29.85,0,0,1,14,3.1A27.9,27.9,0,0,1,578,54.75a34.22,34.22,0,0,1,5.52,11.9,44.35,44.35,0,0,1,1.21,14H539.48Q539.84,89,543.73,92.76Zm19.49-33q-3.1-3.4-9.41-3.4a15,15,0,0,0-6.86,1.4,13.08,13.08,0,0,0-4.37,3.46,12.68,12.68,0,0,0-2.31,4.37,19.75,19.75,0,0,0-.79,4.13h28Q566.31,63.13,563.22,59.73Z" style="fill:#2c3e50"/><path d="M611.36,45V56.7h.24a21.14,21.14,0,0,1,3.28-5.4A21.5,21.5,0,0,1,619.61,47a23.19,23.19,0,0,1,5.71-2.73,20.61,20.61,0,0,1,6.31-1,13.48,13.48,0,0,1,3.76.61V60q-1.22-.24-2.91-.43a30.91,30.91,0,0,0-3.28-.18,18.39,18.39,0,0,0-8,1.58,13.88,13.88,0,0,0-5.28,4.31,17.26,17.26,0,0,0-2.85,6.37,34.64,34.64,0,0,0-.85,7.89v28.29H595V45Z" style="fill:#2c3e50"/></svg>